<svg xmlns="http://www.w3.org/2000/svg" width="243" height="64" viewBox="0 0 243 64" fill="none"><path fill="#000" d="m29.325 63.997-1.987-.011-1.995-.06-2.021-.138-2.039-.241-2.047-.364-2.038-.514-2.01-.676-1.958-.855-1.874-1.041-1.765-1.222-1.63-1.394-1.474-1.548-1.307-1.678-1.135-1.778-.961-1.85-.798-1.899-.648-1.921-.512-1.924-.392-1.916-.288-1.896-.201-1.87-.133-1.84-.075-1.813-.031-1.767L0 32.006l.006-1.767.034-1.815.075-1.821.133-1.85.204-1.879.294-1.904.397-1.924.518-1.933.657-1.93.809-1.905.976-1.855 1.146-1.778L6.57 7.97 8.06 6.43l1.638-1.385 1.77-1.21 1.875-1.027 1.952-.843 2.004-.666 2.03-.502L21.364.44 23.39.204l2.007-.135L27.376.01 29.316 0l1.987.011 1.995.06L35.32.21l2.039.241 2.047.364 2.039.514 2.01.677 1.957.854L47.285 3.9l1.766 1.222 1.63 1.394 1.473 1.549 1.307 1.677 1.135 1.778.962 1.85.797 1.899.648 1.921.512 1.927.392 1.916.288 1.896.201 1.87.133 1.84.075 1.813.031 1.767.006 1.784-.006 1.758-.034 1.815-.075 1.821-.133 1.85-.204 1.879-.294 1.904-.397 1.924-.518 1.933-.657 1.93-.809 1.905-.976 1.855-1.146 1.778-1.321 1.675-1.486 1.54-1.638 1.385-1.77 1.21-1.875 1.027-1.952.843-2.004.666-2.03.502-2.036.358-2.027.235-2.007.135-1.978.058-1.94.011-.003-.003Zm-1.923-2.57 1.923.012 1.909-.011 1.909-.058 1.903-.129 1.895-.22 1.877-.333 1.848-.462 1.805-.605 1.742-.757 1.659-.915 1.555-1.07 1.436-1.222 1.302-1.36 1.16-1.479 1.014-1.58.866-1.66.726-1.719.596-1.758.475-1.778.365-1.784.274-1.78.193-1.773.127-1.76.072-1.75.031-1.752.006-1.733-.006-1.752-.031-1.732-.072-1.75-.127-1.76-.193-1.773-.273-1.78-.366-1.785-.475-1.778-.596-1.758-.726-1.718-.866-1.66-1.014-1.58-1.16-1.48-1.302-1.36-1.436-1.221-1.555-1.07-1.659-.915-1.742-.757-1.805-.605-1.848-.462-1.877-.332-1.895-.221-1.903-.13-1.91-.057-1.922-.011-1.91.011-1.908.058-1.903.129-1.895.22-1.877.333-1.849.462-1.805.605-1.742.757-1.658.915-1.555 1.07-1.437 1.222-1.301 1.359-1.16 1.48-1.014 1.58-.867 1.66-.725 1.718-.596 1.758-.475 1.778-.366 1.784-.274 1.781-.193 1.773-.126 1.76-.072 1.75-.032 1.752-.006 1.738.006 1.747.032 1.732.072 1.75.126 1.76.193 1.773.274 1.78.366 1.784.475 1.779.596 1.758.725 1.717.867 1.66 1.013 1.581 1.16 1.48 1.302 1.36 1.437 1.221 1.555 1.07 1.658.915 1.742.757 1.805.605 1.849.462 1.877.332 1.895.221 1.903.13 1.909.056Z"/><path fill="#000" d="M16.473 24.308V12.94h2.418v9.152h6.715v2.216h-9.133ZM24.48 38.215V26.844h8.972v2.202h-6.57v2.229h5.735v2.202h-5.735v2.535h6.731v2.203H24.48ZM39.334 52.118l-2.14-3.874-2.182 3.874H32.31l3.524-5.767-3.277-5.604h2.848l1.891 3.605 1.941-3.605h2.7l-3.293 5.527 3.521 5.844h-2.83Z"/><g fill="#000" clip-path="url(#a)"><path d="M68.855 30.445a.17.17 0 0 1-.175-.175l.074-8.653-.074-8.453c0-.1.074-.175.175-.175h5.86c5.013 0 9.052 2.842 9.052 8.802 0 5.96-4.19 8.654-9.004 8.654h-5.908Zm2.917-2.395h3.192c2.969 0 5.636-1.821 5.636-6.284s-2.518-6.385-5.736-6.385h-3.092c0 .026-.05 3.866-.05 6.161 0 2.295.05 6.485.05 6.508ZM89.43 30.743c-2.47 0-4.389-1.296-4.389-3.617 0-3.143 2.518-3.866 4.962-4.213 2.57-.373 3.565-.525 3.565-1.695 0-.947-.823-1.572-2.492-1.572-1.796 0-2.593.723-2.72 1.87a.17.17 0 0 1-.174.175h-2.57a.17.17 0 0 1-.175-.175c.149-2.667 2.194-4.213 5.76-4.213 3.565 0 5.36 1.646 5.36 4.514v3.465l.049 4.988a.17.17 0 0 1-.175.175h-2.57a.17.17 0 0 1-.175-.175l.075-1.572c-.898 1.27-2.37 2.045-4.34 2.045h.008Zm.797-2.12c2.02-.025 3.293-1.02 3.416-3.091v-1.498c-.648.4-1.77.474-3.092.723-1.397.25-2.493.674-2.493 2.071 0 1.248.824 1.821 2.169 1.796ZM98.556 30.445a.17.17 0 0 1-.175-.175l.049-5.86v-6.634c0-.1.074-.175.175-.175h2.57c.1 0 .175.074.175.175l-.075 1.695c.823-1.196 2.295-2.169 4.213-2.169 2.668 0 4.389 1.796 4.389 5.037v2.645l.049 5.286a.17.17 0 0 1-.175.175h-2.694a.17.17 0 0 1-.175-.175l.026-5.286v-2.57c0-1.822-.946-2.768-2.32-2.768-1.52 0-2.917 1.27-3.167 3.94v1.398l.049 5.286a.17.17 0 0 1-.175.175h-2.742.003ZM114.715 25.658l.049 4.612a.17.17 0 0 1-.175.175h-2.742a.17.17 0 0 1-.175-.175l.049-4.612v-7.88c0-.1.074-.174.175-.174h2.57c.1 0 .175.075.175.175l-.075 1.695c.849-1.296 2.045-2.168 3.815-2.168s3.118.797 3.717 2.544c1.021-1.845 2.295-2.544 3.964-2.544 2.544 0 4.039 1.572 4.039 5.036v3.316l.048 4.612a.17.17 0 0 1-.175.175h-2.693a.17.17 0 0 1-.175-.175l.026-4.612v-3.241c0-1.945-.774-2.768-2.045-2.768-1.147 0-2.269 1.196-2.645 3.367v2.645l.049 4.612a.17.17 0 0 1-.175.175h-2.719a.17.17 0 0 1-.175-.175l.049-4.612V22.42c0-1.945-.775-2.768-2.045-2.768-1.271 0-2.47 1.397-2.719 3.941v2.07l.008-.005ZM135.967 30.743c-2.47 0-4.389-1.296-4.389-3.617 0-3.143 2.518-3.866 4.962-4.213 2.57-.373 3.566-.525 3.566-1.695 0-.947-.824-1.572-2.493-1.572-1.796 0-2.593.723-2.719 1.87a.17.17 0 0 1-.175.175h-2.57a.17.17 0 0 1-.175-.175c.149-2.667 2.194-4.213 5.759-4.213 3.566 0 5.361 1.646 5.361 4.514v3.465l.049 4.988a.17.17 0 0 1-.175.175h-2.57a.17.17 0 0 1-.175-.175l.075-1.572c-.898 1.27-2.369 2.045-4.34 2.045h.009Zm.8-2.12c2.019-.025 3.293-1.02 3.416-3.091v-1.498c-.648.4-1.77.474-3.092.723-1.397.25-2.493.674-2.493 2.071 0 1.248.824 1.821 2.169 1.796ZM145.097 30.445a.17.17 0 0 1-.175-.175l.074-6.31-.074-6.184c0-.1.074-.175.175-.175h2.644a.17.17 0 0 1 .175.175l-.1 2.07c.972-1.545 2.645-2.343 4.489-2.343.224 0 .473.026.697.075.1 0 .175.1.175.2v1.997c0 .1-.075.175-.175.15-.175 0-.399-.027-.623-.027-2.418 0-4.388 1.423-4.463 4.34v6.035a.17.17 0 0 1-.175.175h-2.644v-.003ZM161.081 28.027l-2.169-3.59-1.422 1.694.026 4.14a.17.17 0 0 1-.175.174h-2.619a.17.17 0 0 1-.175-.175l.074-8.527-.074-8.58c0-.1.074-.174.175-.174h2.619c.1 0 .175.074.175.175l-.049 8.53v1.047l4.314-5.014a.462.462 0 0 1 .298-.126h2.992c.074 0 .1.075.048.126l-4.09 4.538 4.69 8.031c.049.075 0 .15-.075.15h-3.143c-.101 0-.201-.075-.25-.15l-1.173-2.269h.003ZM171.827 30.743c-3.64 0-5.86-1.546-5.934-4.489 0-.1.074-.175.175-.175h2.57c.1 0 .174.075.174.175.075 1.721 1.174 2.493 3.193 2.493 1.695 0 2.719-.674 2.719-1.87 0-2.843-8.53-.324-8.53-5.61 0-2.593 2.094-3.965 5.338-3.965s5.435 1.349 5.61 4.039a.17.17 0 0 1-.175.175h-2.444c-.1 0-.175-.075-.201-.175-.174-1.345-1.121-2.094-2.816-2.094-1.497 0-2.444.548-2.444 1.796 0 2.768 8.53.149 8.53 5.587 0 2.619-2.443 4.116-5.759 4.116l-.006-.003ZM71.522 43.645l.026 8.304a.17.17 0 0 1-.175.175h-2.518a.17.17 0 0 1-.175-.175l.048-8.605-.048-8.505c0-.1.074-.175.175-.175h3.292c.1 0 .201.05.276.15l8.106 13.492-.026-.849-.124-3.766v-8.854c0-.1.075-.175.175-.175h2.519c.1 0 .175.074.175.175l-.049 8.504.049 8.605a.17.17 0 0 1-.175.175H79.63c-.1 0-.201-.049-.275-.15L71.399 38.73l.049 1.098.074 3.815v.003ZM89.28 52.422c-2.47 0-4.39-1.296-4.39-3.617 0-3.143 2.519-3.866 4.963-4.213 2.57-.373 3.565-.525 3.565-1.695 0-.947-.823-1.572-2.493-1.572-1.795 0-2.592.723-2.719 1.87a.17.17 0 0 1-.175.175h-2.57a.17.17 0 0 1-.175-.175c.15-2.667 2.195-4.214 5.76-4.214s5.36 1.647 5.36 4.515v3.468l.05 4.988a.17.17 0 0 1-.175.175h-2.57a.17.17 0 0 1-.175-.175l.074-1.572c-.898 1.27-2.369 2.045-4.34 2.045l.01-.003Zm.796-2.12c2.02-.025 3.293-1.02 3.417-3.091v-1.498c-.649.399-1.77.474-3.092.723-1.397.25-2.493.674-2.493 2.071 0 1.248.823 1.821 2.168 1.796ZM105.293 51.748c0 .1-.074.2-.175.223-.599.201-1.371.373-2.07.373-2.02 0-3.841-1.02-3.841-3.89v-6.932h-1.471a.17.17 0 0 1-.175-.175v-1.896c0-.1.074-.175.174-.175h1.472l-.026-3.043c0-.1.075-.175.175-.175h2.668c.1 0 .175.075.175.175l-.026 3.043h2.968a.17.17 0 0 1 .175.175v1.896a.17.17 0 0 1-.175.175h-2.968l.026 6.858c0 1.297.524 1.695 1.497 1.695.573 0 1.047-.1 1.422-.2a.135.135 0 0 1 .175.126v1.747ZM107.036 37.983a.17.17 0 0 1-.175-.175V35.19c0-.1.075-.175.175-.175h2.694c.1 0 .175.075.175.175v2.62a.17.17 0 0 1-.175.174h-2.694Zm0 14.14a.17.17 0 0 1-.175-.174l.026-6.333-.026-6.161c0-.1.075-.175.175-.175h2.694c.1 0 .175.074.175.175l-.049 6.16.049 6.334a.17.17 0 0 1-.175.175h-2.694ZM117.908 52.422c-4.065 0-6.359-2.618-6.359-6.683 0-4.064 2.294-6.758 6.359-6.758 4.064 0 6.31 2.62 6.31 6.684s-2.269 6.757-6.31 6.757Zm0-2.12c2.168 0 3.218-1.497 3.218-4.563s-1.073-4.638-3.241-4.638c-2.22.026-3.267 1.62-3.267 4.664 0 3.043 1.098 4.538 3.293 4.538h-.003ZM125.966 52.124a.17.17 0 0 1-.175-.175l.049-5.86v-6.634c0-.1.074-.175.175-.175h2.57c.1 0 .175.074.175.175l-.075 1.695c.823-1.196 2.295-2.169 4.214-2.169 2.667 0 4.388 1.796 4.388 5.037v2.645l.049 5.286a.17.17 0 0 1-.175.175h-2.693a.17.17 0 0 1-.175-.175l.025-5.286v-2.57c0-1.822-.946-2.768-2.317-2.768-1.52 0-2.917 1.27-3.167 3.94v1.398l.049 5.286a.17.17 0 0 1-.175.175h-2.742ZM143.148 52.422c-2.469 0-4.388-1.296-4.388-3.617 0-3.143 2.518-3.866 4.962-4.213 2.57-.373 3.565-.525 3.565-1.695 0-.947-.823-1.572-2.492-1.572-1.796 0-2.593.723-2.719 1.87a.17.17 0 0 1-.175.175h-2.57a.17.17 0 0 1-.175-.175c.149-2.667 2.194-4.214 5.759-4.214 3.565 0 5.361 1.647 5.361 4.515v3.468l.049 4.988a.17.17 0 0 1-.175.175h-2.57a.17.17 0 0 1-.175-.175l.074-1.572c-.897 1.27-2.369 2.045-4.339 2.045l.008-.003Zm.798-2.12c2.019-.025 3.292-1.02 3.416-3.091v-1.498c-.648.399-1.77.474-3.092.723-1.397.25-2.493.674-2.493 2.071 0 1.248.823 1.821 2.169 1.796ZM152.4 52.124a.17.17 0 0 1-.175-.175l.074-8.605-.074-8.505c0-.1.074-.174.175-.174h2.618a.17.17 0 0 1 .175.175l-.048 8.504.048 8.605a.17.17 0 0 1-.175.175H152.4ZM157.487 52.124a.17.17 0 0 1-.175-.175l.075-8.605-.075-8.505c0-.1.075-.174.175-.174h2.619a.17.17 0 0 1 .175.175l-.049 8.504.049 8.605a.17.17 0 0 1-.175.175h-2.619ZM174.1 47.733c.1 0 .175.074.149.175-.35 2.492-2.444 4.514-5.911 4.514-4.139 0-6.359-2.768-6.359-6.683s2.369-6.758 6.258-6.758c3.89 0 6.259 2.694 6.31 7.108a.17.17 0 0 1-.175.175h-9.402c.123 2.742 1.248 4.039 3.416 4.039 1.572 0 2.593-.775 2.969-2.395 0-.1.1-.175.201-.175h2.544Zm-5.837-6.658c-1.796 0-2.868 1.099-3.192 3.167h6.235c-.126-1.672-1.073-3.167-3.043-3.167ZM182.626 49.703l-2.169-3.591-1.422 1.695.025 4.139a.17.17 0 0 1-.174.175h-2.619a.17.17 0 0 1-.175-.175l.074-8.527-.074-8.58c0-.1.074-.174.175-.174h2.619c.1 0 .174.074.174.175l-.048 8.527v1.047l4.314-5.014a.458.458 0 0 1 .298-.123h2.992c.074 0 .1.074.048.123l-4.09 4.538 4.69 8.03c.049.075 0 .15-.075.15h-3.143c-.101 0-.201-.075-.25-.15l-1.173-2.268.003.003ZM193.378 52.422c-3.64 0-5.86-1.546-5.935-4.489 0-.1.075-.175.175-.175h2.57a.17.17 0 0 1 .175.175c.075 1.721 1.173 2.493 3.193 2.493 1.695 0 2.719-.674 2.719-1.87 0-2.843-8.528-.324-8.528-5.61 0-2.593 2.094-3.965 5.338-3.965s5.436 1.349 5.611 4.039a.17.17 0 0 1-.175.175h-2.444c-.1 0-.175-.075-.201-.175-.175-1.345-1.121-2.094-2.819-2.094-1.498 0-2.444.548-2.444 1.796 0 2.768 8.53.149 8.53 5.587 0 2.619-2.444 4.116-5.759 4.116l-.006-.003ZM200.956 37.983a.17.17 0 0 1-.175-.175V35.19c0-.1.075-.175.175-.175h2.694c.1 0 .175.075.175.175v2.62a.17.17 0 0 1-.175.174h-2.694Zm0 14.14a.17.17 0 0 1-.175-.174l.026-6.333-.026-6.161c0-.1.075-.175.175-.175h2.694c.1 0 .175.074.175.175l-.049 6.16.049 6.334a.17.17 0 0 1-.175.175h-2.694ZM212.303 49.703l-2.168-3.591-1.423 1.695.026 4.139a.17.17 0 0 1-.175.175h-2.619a.17.17 0 0 1-.174-.175l.074-8.527-.074-8.58c0-.1.074-.174.174-.174h2.619a.17.17 0 0 1 .175.175l-.049 8.527v1.047l4.314-5.014a.463.463 0 0 1 .299-.123h2.991c.075 0 .101.074.049.123l-4.09 4.538 4.687 8.03c.048.075 0 .15-.075.15h-3.144c-.1 0-.2-.075-.249-.15l-1.173-2.268.005.003Z"/><path d="M223.101 52.422c-4.064 0-6.359-2.619-6.359-6.683s2.295-6.758 6.359-6.758c4.065 0 6.31 2.619 6.31 6.683 0 4.065-2.268 6.758-6.31 6.758Zm0-2.12c2.169 0 3.218-1.497 3.218-4.563s-1.072-4.638-3.241-4.638c-2.22.026-3.267 1.62-3.267 4.664 0 3.043 1.099 4.537 3.293 4.537h-.003ZM231.159 52.124a.17.17 0 0 1-.175-.175l.049-5.86v-6.634c0-.1.075-.175.175-.175h2.57c.1 0 .175.074.175.175l-.075 1.695c.824-1.196 2.295-2.169 4.214-2.169 2.668 0 4.388 1.796 4.388 5.037v2.645l.049 5.286a.17.17 0 0 1-.175.175h-2.693a.17.17 0 0 1-.175-.175l.026-5.286v-2.57c0-1.822-.947-2.768-2.321-2.768-1.52 0-2.917 1.27-3.166 3.94v1.398l.049 5.286a.17.17 0 0 1-.175.175h-2.743.003Z"/></g><defs><clipPath id="a"><path fill="#000" d="M68.68 12.989h173.85v39.433H68.68z"/></clipPath></defs></svg>
