<?xml version="1.0" encoding="UTF-8" standalone="no"?>
<svg
   width="64"
   height="64"
   viewBox="0 0 64 64"
   fill="none"
   version="1.1"
   id="svg5"
   sodipodi:docname="lex_logo.svg"
   inkscape:version="1.4.2 (2aeb623e1d, 2025-05-12)"
   xmlns:inkscape="http://www.inkscape.org/namespaces/inkscape"
   xmlns:sodipodi="http://sodipodi.sourceforge.net/DTD/sodipodi-0.dtd"
   xmlns="http://www.w3.org/2000/svg"
   xmlns:svg="http://www.w3.org/2000/svg">
  <sodipodi:namedview
     id="namedview5"
     pagecolor="#ffffff"
     bordercolor="#000000"
     borderopacity="0.25"
     inkscape:showpageshadow="2"
     inkscape:pageopacity="0.0"
     inkscape:pagecheckerboard="0"
     inkscape:deskcolor="#d1d1d1"
     showgrid="false"
     inkscape:zoom="6.8756482"
     inkscape:cx="46.831948"
     inkscape:cy="8.7991703"
     inkscape:window-width="1920"
     inkscape:window-height="1016"
     inkscape:window-x="0"
     inkscape:window-y="27"
     inkscape:window-maximized="1"
     inkscape:current-layer="svg5" />
  <path
     fill="#000000"
     d="m 32.0045,63.997 -1.987,-0.011 -1.995,-0.06 -2.021,-0.138 -2.039,-0.241 -2.047,-0.364 -2.038,-0.514 -2.01,-0.676 -1.958,-0.855 -1.874,-1.041 -1.765,-1.222 -1.63,-1.394 -1.474,-1.548 -1.307,-1.678 -1.135,-1.778 -0.961,-1.85 -0.798,-1.899 -0.648,-1.921 -0.512,-1.924 -0.392,-1.916 -0.288,-1.896 -0.201,-1.87 -0.133,-1.84 -0.075,-1.813 -0.031,-1.767 -0.006,-1.775 0.006,-1.767 0.034,-1.815 0.075,-1.821 0.133,-1.85 0.204,-1.879 0.294,-1.904 0.397,-1.924 0.518,-1.933 0.657,-1.93 0.809,-1.905 0.976,-1.855 1.146,-1.778 1.321,-1.675 1.49,-1.54 1.638,-1.385 1.77,-1.21 1.875,-1.027 1.952,-0.843 2.004,-0.666 2.03,-0.502 2.035,-0.357 2.026,-0.236 2.007,-0.135 1.979,-0.059 1.94,-0.01 1.987,0.011 1.995,0.06 2.022,0.139 2.039,0.241 2.047,0.364 2.039,0.514 2.01,0.677 1.957,0.854 1.873,1.04 1.766,1.222 1.63,1.394 1.473,1.549 1.307,1.677 1.135,1.778 0.962,1.85 0.797,1.899 0.648,1.921 0.512,1.927 0.392,1.916 0.288,1.896 0.201,1.87 0.133,1.84 0.075,1.813 0.031,1.767 0.006,1.784 -0.006,1.758 -0.034,1.815 -0.075,1.821 -0.133,1.85 -0.204,1.879 -0.294,1.904 -0.397,1.924 -0.518,1.933 -0.657,1.93 -0.809,1.905 -0.976,1.855 -1.146,1.778 -1.321,1.675 -1.486,1.54 -1.638,1.385 -1.77,1.21 -1.875,1.027 -1.952,0.843 -2.004,0.666 -2.03,0.502 -2.036,0.358 -2.027,0.235 -2.007,0.135 -1.978,0.058 -1.94,0.011 z m -1.923,-2.57 1.923,0.012 1.909,-0.011 1.909,-0.058 1.903,-0.129 1.895,-0.22 1.877,-0.333 1.848,-0.462 1.805,-0.605 1.742,-0.757 1.659,-0.915 1.555,-1.07 1.436,-1.222 1.302,-1.36 1.16,-1.479 1.014,-1.58 0.866,-1.66 0.726,-1.719 0.596,-1.758 0.475,-1.778 0.365,-1.784 0.274,-1.78 0.193,-1.773 0.127,-1.76 0.072,-1.75 0.031,-1.752 0.006,-1.733 -0.006,-1.752 -0.031,-1.732 -0.072,-1.75 -0.127,-1.76 -0.193,-1.773 -0.273,-1.78 -0.366,-1.785 -0.475,-1.778 -0.596,-1.758 -0.726,-1.718 -0.866,-1.66 -1.014,-1.58 -1.16,-1.48 -1.302,-1.36 -1.436,-1.221 -1.555,-1.07 -1.659,-0.915 -1.742,-0.757 -1.805,-0.605 -1.848,-0.462 -1.877,-0.332 -1.895,-0.221 -1.903,-0.13 -1.91,-0.057 -1.922,-0.011 -1.91,0.011 -1.908,0.058 -1.903,0.129 -1.895,0.22 -1.877,0.333 -1.849,0.462 -1.805,0.605 -1.742,0.757 -1.658,0.915 -1.555,1.07 -1.437,1.222 -1.301,1.359 -1.16,1.48 -1.014,1.58 -0.867,1.66 -0.725,1.718 -0.596,1.758 -0.475,1.778 -0.366,1.784 -0.274,1.781 -0.193,1.773 -0.126,1.76 -0.072,1.75 -0.032,1.752 -0.006,1.738 0.006,1.747 0.032,1.732 0.072,1.75 0.126,1.76 0.193,1.773 0.274,1.78 0.366,1.784 0.475,1.779 0.596,1.758 0.725,1.717 0.867,1.66 1.013,1.581 1.16,1.48 1.302,1.36 1.437,1.221 1.555,1.07 1.658,0.915 1.742,0.757 1.805,0.605 1.849,0.462 1.877,0.332 1.895,0.221 1.903,0.13 z"
     id="path1"
     style="fill:#0069eb;fill-opacity:1" />
  <path
     fill="#000000"
     d="M 19.154,24.308 V 12.94 h 2.418 v 9.152 h 6.715 v 2.216 z m 8.007,13.907 V 26.844 h 8.972 v 2.202 h -6.57 v 2.229 h 5.735 v 2.202 h -5.735 v 2.535 h 6.731 v 2.203 z m 14.854,13.903 -2.14,-3.874 -2.182,3.874 h -2.702 l 3.524,-5.767 -3.277,-5.604 h 2.848 l 1.891,3.605 1.941,-3.605 h 2.7 l -3.293,5.527 3.521,5.844 h -2.83 z"
     id="path2"
     style="fill:#0069eb;fill-opacity:1" />
  <defs
     id="defs5">
    <clipPath
       id="a">
      <path
         fill="#000000"
         d="M 68.68,12.989 H 242.53 V 52.422 H 68.68 Z"
         id="path5" />
    </clipPath>
  </defs>
</svg>
