<svg width="291" height="384" viewBox="0 0 291 384" fill="none" xmlns="http://www.w3.org/2000/svg">
	<path d="M197 117V116.98H205.233H221.05H290V94.4735H247.896L269.94 72.849C274.252 68.7374 277.705 64.8154 280.296 61.0841C282.882 57.3527 284.767 53.5702 285.956 49.7275C287.14 45.8888 287.736 41.6939 287.736 37.1549C287.736 29.4745 286.09 22.8747 282.799 17.3564C279.509 11.8422 274.845 7.56803 268.806 4.54303C262.768 1.513 255.597 0 247.294 0C237.91 0 229.582 1.94443 222.298 5.83831C215.02 9.73219 209.059 15.5193 204.423 23.1997L223.676 40.0736C227.124 34.6667 230.521 30.7999 233.866 28.4712C237.207 26.1465 240.929 24.9856 245.027 24.9856C249.341 24.9856 252.819 26.1736 255.462 28.5555C258.105 30.9363 259.428 34.1801 259.428 38.2876C259.428 40.1287 259.128 41.8845 258.535 43.5601C257.942 45.2396 256.943 47.0496 255.546 48.9991C254.139 50.9435 252.362 52.9993 250.206 55.1625L239.767 65.8217L218.352 87.687L218.298 87.7392L205.233 101.08H205.294L197 109.587V117Z" fill="#000" class="svg-elem-1"></path>
	<path d="M279 207V372H11V106H197.5" stroke="#000" stroke-width="22" class="svg-elem-2"></path>
</svg>
